<mxfile host="65bd71144e">
    <diagram id="9O0gPhXO7ydK4vHjESiS" name="PÃ¡gina-1">
        <mxGraphModel dx="596" dy="478" grid="1" gridSize="10" guides="1" tooltips="1" connect="1" arrows="1" fold="1" page="1" pageScale="1" pageWidth="827" pageHeight="1169" math="0" shadow="0">
            <root>
                <mxCell id="0"/>
                <mxCell id="1" parent="0"/>
                <mxCell id="14" style="edgeStyle=none;html=1;" edge="1" parent="1">
                    <mxGeometry relative="1" as="geometry">
                        <mxPoint x="230" y="425" as="targetPoint"/>
                        <mxPoint x="230" y="425" as="sourcePoint"/>
                    </mxGeometry>
                </mxCell>
                <mxCell id="58" style="edgeStyle=none;html=1;entryX=0;entryY=0.5;entryDx=0;entryDy=0;fontSize=12;endArrow=ERmany;endFill=0;jumpSize=10;endSize=21;" edge="1" parent="1" source="16" target="25">
                    <mxGeometry relative="1" as="geometry"/>
                </mxCell>
                <mxCell id="16" value="Cursos" style="swimlane;fontSize=12;" vertex="1" parent="1">
                    <mxGeometry x="120" y="320" width="200" height="200" as="geometry"/>
                </mxCell>
                <mxCell id="17" value="curse" style="text;html=1;align=center;verticalAlign=middle;resizable=0;points=[];autosize=1;strokeColor=none;fillColor=none;fontSize=12;" vertex="1" parent="16">
                    <mxGeometry x="10" y="30" width="50" height="20" as="geometry"/>
                </mxCell>
                <mxCell id="18" value="title" style="text;html=1;align=center;verticalAlign=middle;resizable=0;points=[];autosize=1;strokeColor=none;fillColor=none;fontSize=12;" vertex="1" parent="16">
                    <mxGeometry x="20" y="50" width="30" height="20" as="geometry"/>
                </mxCell>
                <mxCell id="19" value="descripcion" style="text;html=1;align=center;verticalAlign=middle;resizable=0;points=[];autosize=1;strokeColor=none;fillColor=none;fontSize=12;" vertex="1" parent="16">
                    <mxGeometry x="10" y="70" width="80" height="20" as="geometry"/>
                </mxCell>
                <mxCell id="20" value="imagen" style="text;html=1;align=center;verticalAlign=middle;resizable=0;points=[];autosize=1;strokeColor=none;fillColor=none;fontSize=12;" vertex="1" parent="16">
                    <mxGeometry x="10" y="90" width="60" height="20" as="geometry"/>
                </mxCell>
                <mxCell id="22" value="finalizacion" style="text;html=1;align=center;verticalAlign=middle;resizable=0;points=[];autosize=1;strokeColor=none;fillColor=none;fontSize=12;" vertex="1" parent="16">
                    <mxGeometry x="10" y="130" width="80" height="20" as="geometry"/>
                </mxCell>
                <mxCell id="23" value="capacidad" style="text;html=1;align=center;verticalAlign=middle;resizable=0;points=[];autosize=1;strokeColor=none;fillColor=none;fontSize=12;" vertex="1" parent="16">
                    <mxGeometry x="15" y="150" width="70" height="20" as="geometry"/>
                </mxCell>
                <mxCell id="21" value="Inicio" style="text;html=1;align=center;verticalAlign=middle;resizable=0;points=[];autosize=1;strokeColor=none;fillColor=none;fontSize=12;" vertex="1" parent="1">
                    <mxGeometry x="130" y="410" width="40" height="20" as="geometry"/>
                </mxCell>
                <mxCell id="60" style="edgeStyle=none;jumpSize=10;html=1;entryX=0.5;entryY=0;entryDx=0;entryDy=0;fontSize=12;endArrow=ERmany;endFill=0;startSize=20;endSize=20;" edge="1" parent="1" source="25" target="33">
                    <mxGeometry relative="1" as="geometry">
                        <Array as="points">
                            <mxPoint x="510" y="570"/>
                            <mxPoint x="280" y="570"/>
                        </Array>
                    </mxGeometry>
                </mxCell>
                <mxCell id="25" value="Unidades" style="swimlane;fontSize=12;" vertex="1" parent="1">
                    <mxGeometry x="400" y="320" width="200" height="200" as="geometry"/>
                </mxCell>
                <mxCell id="27" value="unidad" style="text;html=1;align=center;verticalAlign=middle;resizable=0;points=[];autosize=1;strokeColor=none;fillColor=none;fontSize=12;" vertex="1" parent="25">
                    <mxGeometry x="10" y="30" width="50" height="20" as="geometry"/>
                </mxCell>
                <mxCell id="28" value="title" style="text;html=1;align=center;verticalAlign=middle;resizable=0;points=[];autosize=1;strokeColor=none;fillColor=none;fontSize=12;" vertex="1" parent="25">
                    <mxGeometry x="10" y="60" width="30" height="20" as="geometry"/>
                </mxCell>
                <mxCell id="29" value="descripcion" style="text;html=1;align=center;verticalAlign=middle;resizable=0;points=[];autosize=1;strokeColor=none;fillColor=none;fontSize=12;" vertex="1" parent="25">
                    <mxGeometry x="10" y="100" width="80" height="20" as="geometry"/>
                </mxCell>
                <mxCell id="30" value="inicio" style="text;html=1;align=center;verticalAlign=middle;resizable=0;points=[];autosize=1;strokeColor=none;fillColor=none;fontSize=12;" vertex="1" parent="25">
                    <mxGeometry x="15" y="130" width="40" height="20" as="geometry"/>
                </mxCell>
                <mxCell id="31" value="cursoId" style="text;html=1;align=center;verticalAlign=middle;resizable=0;points=[];autosize=1;strokeColor=none;fillColor=none;fontSize=12;" vertex="1" parent="25">
                    <mxGeometry x="10" y="160" width="60" height="20" as="geometry"/>
                </mxCell>
                <mxCell id="61" style="edgeStyle=none;jumpSize=10;html=1;entryX=0;entryY=0.5;entryDx=0;entryDy=0;fontSize=12;endArrow=ERmany;endFill=0;startSize=20;endSize=20;" edge="1" parent="1" source="33" target="39">
                    <mxGeometry relative="1" as="geometry"/>
                </mxCell>
                <mxCell id="33" value="Clases" style="swimlane;fontSize=12;startSize=23;" vertex="1" parent="1">
                    <mxGeometry x="180" y="640" width="200" height="200" as="geometry"/>
                </mxCell>
                <mxCell id="36" value="title" style="text;html=1;align=center;verticalAlign=middle;resizable=0;points=[];autosize=1;strokeColor=none;fillColor=none;fontSize=12;" vertex="1" parent="33">
                    <mxGeometry x="15" y="60" width="30" height="20" as="geometry"/>
                </mxCell>
                <mxCell id="37" value="descripcion" style="text;html=1;align=center;verticalAlign=middle;resizable=0;points=[];autosize=1;strokeColor=none;fillColor=none;fontSize=12;" vertex="1" parent="33">
                    <mxGeometry x="5" y="90" width="80" height="20" as="geometry"/>
                </mxCell>
                <mxCell id="35" value="Clase" style="text;html=1;align=center;verticalAlign=middle;resizable=0;points=[];autosize=1;strokeColor=none;fillColor=none;fontSize=12;" vertex="1" parent="33">
                    <mxGeometry x="5" y="30" width="50" height="20" as="geometry"/>
                </mxCell>
                <mxCell id="38" value="unitID" style="text;html=1;align=center;verticalAlign=middle;resizable=0;points=[];autosize=1;strokeColor=none;fillColor=none;fontSize=12;" vertex="1" parent="33">
                    <mxGeometry x="15" y="120" width="50" height="20" as="geometry"/>
                </mxCell>
                <mxCell id="39" value="bloques" style="swimlane;fontSize=12;" vertex="1" parent="1">
                    <mxGeometry x="470" y="640" width="200" height="200" as="geometry"/>
                </mxCell>
                <mxCell id="40" value="bloque" style="text;html=1;align=center;verticalAlign=middle;resizable=0;points=[];autosize=1;strokeColor=none;fillColor=none;fontSize=12;" vertex="1" parent="39">
                    <mxGeometry x="11" y="30" width="50" height="20" as="geometry"/>
                </mxCell>
                <mxCell id="41" value="titulo" style="text;html=1;align=center;verticalAlign=middle;resizable=0;points=[];autosize=1;strokeColor=none;fillColor=none;fontSize=12;" vertex="1" parent="39">
                    <mxGeometry x="16" y="60" width="40" height="20" as="geometry"/>
                </mxCell>
                <mxCell id="42" value="claseId" style="text;html=1;align=center;verticalAlign=middle;resizable=0;points=[];autosize=1;strokeColor=none;fillColor=none;fontSize=12;" vertex="1" parent="39">
                    <mxGeometry x="11" y="90" width="60" height="20" as="geometry"/>
                </mxCell>
                <mxCell id="43" value="Usuarios" style="swimlane;fontSize=12;" vertex="1" parent="1">
                    <mxGeometry x="120" y="10" width="200" height="230" as="geometry"/>
                </mxCell>
                <mxCell id="52" value="cursoId" style="text;html=1;align=center;verticalAlign=middle;resizable=0;points=[];autosize=1;strokeColor=none;fillColor=none;fontSize=12;" vertex="1" parent="43">
                    <mxGeometry x="10" y="200" width="60" height="20" as="geometry"/>
                </mxCell>
                <mxCell id="46" value="surname" style="text;html=1;align=center;verticalAlign=middle;resizable=0;points=[];autosize=1;strokeColor=none;fillColor=none;fontSize=12;" vertex="1" parent="43">
                    <mxGeometry x="10" y="85" width="70" height="20" as="geometry"/>
                </mxCell>
                <mxCell id="47" value="email" style="text;html=1;align=center;verticalAlign=middle;resizable=0;points=[];autosize=1;strokeColor=none;fillColor=none;fontSize=12;" vertex="1" parent="43">
                    <mxGeometry x="10" y="110" width="50" height="20" as="geometry"/>
                </mxCell>
                <mxCell id="48" value="password" style="text;html=1;align=center;verticalAlign=middle;resizable=0;points=[];autosize=1;strokeColor=none;fillColor=none;fontSize=12;" vertex="1" parent="43">
                    <mxGeometry x="15" y="140" width="70" height="20" as="geometry"/>
                </mxCell>
                <mxCell id="51" value="rol" style="text;html=1;align=center;verticalAlign=middle;resizable=0;points=[];autosize=1;strokeColor=none;fillColor=none;fontSize=12;" vertex="1" parent="43">
                    <mxGeometry x="15" y="170" width="30" height="20" as="geometry"/>
                </mxCell>
                <mxCell id="44" value="User" style="text;html=1;align=center;verticalAlign=middle;resizable=0;points=[];autosize=1;strokeColor=none;fillColor=none;fontSize=12;" vertex="1" parent="1">
                    <mxGeometry x="120" y="60" width="40" height="20" as="geometry"/>
                </mxCell>
                <mxCell id="45" value="name" style="text;html=1;align=center;verticalAlign=middle;resizable=0;points=[];autosize=1;strokeColor=none;fillColor=none;fontSize=12;" vertex="1" parent="1">
                    <mxGeometry x="115" y="90" width="50" height="20" as="geometry"/>
                </mxCell>
                <mxCell id="55" style="edgeStyle=none;html=1;fontSize=12;endArrow=ERmany;endFill=0;startSize=20;endSize=20;entryX=0.5;entryY=0;entryDx=0;entryDy=0;exitX=0.5;exitY=1;exitDx=0;exitDy=0;" edge="1" parent="1" source="43" target="16">
                    <mxGeometry relative="1" as="geometry"/>
                </mxCell>
            </root>
        </mxGraphModel>
    </diagram>
</mxfile>